<svg width="20" height="20" viewBox="0 0 20 20" fill="none" xmlns="http://www.w3.org/2000/svg">
<path d="M8.35846 0C8.75105 0.000471698 9.13781 0.0950428 9.48632 0.275788C9.83484 0.456533 10.135 0.718186 10.3615 1.03882C10.5881 1.35945 10.7345 1.72972 10.7885 2.11861C10.8425 2.50749 10.8025 2.90364 10.6719 3.27388H14.0832C14.2979 3.27388 14.5105 3.31617 14.7088 3.39833C14.9071 3.48048 15.0874 3.6009 15.2392 3.75271C15.391 3.90452 15.5114 4.08474 15.5935 4.28309C15.6757 4.48143 15.718 4.69402 15.718 4.90871V8.32129C16.0886 8.18899 16.4857 8.14769 16.8757 8.2009C17.2656 8.2541 17.6371 8.40024 17.9588 8.62701C18.2805 8.85378 18.543 9.15454 18.7242 9.50396C18.9054 9.85337 19 10.2412 19 10.6348C19 11.0284 18.9054 11.4163 18.7242 11.7657C18.543 12.1151 18.2805 12.4159 17.9588 12.6426C17.6371 12.8694 17.2656 13.0155 16.8757 13.0688C16.4857 13.122 16.0886 13.0807 15.718 12.9484V16.3609C15.7185 16.576 15.6766 16.789 15.5947 16.9879C15.5128 17.1867 15.3925 17.3674 15.2407 17.5197C15.0888 17.6719 14.9084 17.7927 14.7098 17.8752C14.5112 17.9576 14.2983 18 14.0832 18H10.6772C10.8086 17.6294 10.8492 17.2327 10.7955 16.8432C10.7418 16.4537 10.5953 16.0827 10.3685 15.7615C10.1417 15.4404 9.84105 15.1784 9.49192 14.9975C9.14279 14.8167 8.75535 14.7223 8.36216 14.7223C7.96898 14.7223 7.58153 14.8167 7.2324 14.9975C6.88327 15.1784 6.58265 15.4404 6.35582 15.7615C6.12898 16.0827 5.98255 16.4537 5.92884 16.8432C5.87513 17.2327 5.91571 17.6294 6.04716 18H2.63475C2.41971 18 2.20679 17.9576 2.00818 17.8752C1.80957 17.7927 1.62917 17.6719 1.47731 17.5197C1.32545 17.3674 1.20513 17.1867 1.12323 16.9879C1.04132 16.789 0.999448 16.576 1.00001 16.3609V12.9642C1.3695 13.0936 1.76459 13.1325 2.15223 13.0778C2.53986 13.0232 2.90876 12.8764 3.22804 12.6499C3.54733 12.4233 3.80771 12.1236 3.9874 11.7758C4.16709 11.428 4.26086 11.0422 4.26086 10.6507C4.26086 10.2592 4.16709 9.87341 3.9874 9.5256C3.80771 9.17778 3.54733 8.87807 3.22804 8.65154C2.90876 8.42501 2.53986 8.27826 2.15223 8.22357C1.76459 8.16887 1.3695 8.20783 1.00001 8.33718V4.92459C1.00001 4.49101 1.17224 4.07518 1.47881 3.76859C1.78538 3.462 2.20119 3.28976 2.63475 3.28976H6.0461C5.91546 2.91951 5.87559 2.52331 5.92983 2.13445C5.98407 1.74559 6.13085 1.37543 6.35783 1.05508C6.58481 0.734716 6.88536 0.473516 7.23422 0.293423C7.58309 0.113329 7.97009 0.0196023 8.36269 0.0201176L8.35951 0H8.35846Z" fill="#021C31"/>
</svg>
